<?xml version="1.0" standalone="no"?>
<!DOCTYPE svg PUBLIC "-//W3C//DTD SVG 20010904//EN"
 "http://www.w3.org/TR/2001/REC-SVG-20010904/DTD/svg10.dtd">
<svg version="1.0" xmlns="http://www.w3.org/2000/svg"
 width="100.000000pt" height="100.000000pt" viewBox="0 0 100.000000 100.000000"
 preserveAspectRatio="xMidYMid meet">
<metadata>
Created by potrace 1.14, written by Peter Selinger 2001-2017
</metadata>
<g transform="translate(0.000000,100.000000) scale(0.100000,-0.100000)"
fill="#000000" stroke="none">
<path d="M180 781 c0 -5 11 -12 25 -15 14 -4 29 -15 33 -26 12 -33 5 -475 -8
-500 l-12 -22 -23 22 c-26 25 -63 24 -79 -2 -20 -32 20 -55 86 -49 28 2 86 59
98 97 8 22 13 117 14 249 1 118 4 216 7 219 3 3 14 7 25 9 10 1 20 7 22 12 1
6 -37 11 -93 13 -54 1 -95 -1 -95 -7z"/>
<path d="M394 733 c-8 -64 -2 -75 22 -36 29 46 56 63 102 63 l42 0 0 -85 c1
-47 1 -123 1 -170 0 -47 0 -96 -1 -110 0 -20 -6 -27 -30 -31 -61 -13 -27 -24
70 -24 60 0 100 4 100 10 0 6 -7 11 -15 11 -28 3 -33 4 -41 12 -5 5 -9 93 -9
198 l0 189 40 0 c47 0 79 -19 100 -61 18 -33 37 -30 31 4 -3 12 -5 36 -5 53
l-1 31 -199 0 -200 0 -7 -54z"/>
</g>
</svg>
